<svg width="104" height="63" viewBox="0 0 104 63" fill="none" xmlns="http://www.w3.org/2000/svg">
<path d="M18.64 63V9.62399H0.496V0.215996H47.92V9.62399H29.776V63H18.64Z" fill="#319795"/>
<path d="M55.968 63V0.215996H72.768C82.368 0.215996 89.856 2.808 95.232 7.992C100.608 13.176 103.296 20.952 103.296 31.32C103.296 36.504 102.592 41.08 101.184 45.048C99.84 49.016 97.856 52.344 95.232 55.032C92.672 57.656 89.536 59.64 85.824 60.984C82.176 62.328 78.016 63 73.344 63H55.968ZM67.104 53.976H72C78.4 53.976 83.296 52.152 86.688 48.504C90.144 44.792 91.872 39.064 91.872 31.32C91.872 23.64 90.144 18.04 86.688 14.52C83.232 11 78.336 9.24 72 9.24H67.104V53.976Z" fill="#319795"/>
</svg>
